**ABCDEFGHIJKLMNOPQRSTUVWXYZabcdefghijklmnopqrstuvwxyz**************************
**PARASOLID !"#$%&'()*+,-./:;<=>?@[\]^_`{|}~0123456789**************************
**PART1;
MC=unknown;
MC_MODEL=unknown;
MC_ID=unknown;
OS=unknown;
OS_RELEASE=unknown;
FRU=Parasolid 37.0.173;
APPL=Onshape;
SITE=unknown;
USER=unknown;
FORMAT=text;
GUISE=transmit;
KEY=BTGapi::writeModels_.xmt;
FILE=BTGapi::writeModels_.xmt;
DATE=2024-12-09T01:49:17 (UTC);
**PART2;
SCH=SCH_3700173_36001;
USFLD_SIZE=0;
**PART3;
**END_OF_HEADER*****************************************************************
T51 : TRANSMIT FILE created by modeller version 370017323 SCH_3700173_36001_1300
6231 0 12 36 CCCI7 lattice222 0 CCCI4 mesh1006 0 I8 polyline1008 0 CCCCCCCDI5 ow
ner1040 0 CCCI16 boundary_lattice222 0 CCCI13 boundary_mesh1006 0 I17 boundary_p
olyline1008 0 CCCA16 index_map_offset0 0 1 dA9 index_map82 0 A17 node_id_index_m
ap82 0 A20 schema_embedding_map82 0 A5 child12 0 A14 lowest_node_id0 0 1 dA16 me
sh_offset_data206 0 Z1 1200 2 3 0 0 0 0 0 0 0 1e3 1e-8 0 4 0 1 0 1 1 5 0 6 7 8 0
 0 9 10 11 0 0 0 0 0 0 0 81 255 1 2 1176 12 1 13 0 0 0 14 70 11 CI9 list_type0 0
 1 uI10 notransmit0 0 1 lCCCDCCDI12 finger_index0 0 1 dI12 finger_block1012 0 CZ
3 0 4 T1 0 0 7 20 1 15 15 13 255 5 391 0 1 0 16 0 0 17 0 51 255 6 981 0 18 19 0
 0 +-.2413 .4191 .0015875 0 0 -1 .0127 -1 0 0 31 255 7 794 0 10 20 0 0 --.08255
 -.3048 .0015875 0 0 1 1 0 0 .0127 29 255 8 704 0 11 21 0 .2413 .4318 .0015875 1
9 9 CCCCCCI5 frame230 0 CA5 owner12 0 Z9 124 0 1 17 0 22 0 V0 16 255 10 787 23 ?
24 0 25 7 0 0 1 18 255 11 701 26 27 0 28 8 ?1 81 1 26 1032 29 11 0 0 30 31 32 17
 255 27 0 33 34 35 11 36 37 0 38 +18 28 697 39 40 11 41 21 ?1 81 1 39 1028 29 28
 0 0 42 43 44 17 40 0 45 38 46 28 47 48 0 34 +18 41 693 49 50 28 51 52 ?1 29 21
 700 0 28 52 8 -.2413 .4318 .0015875 29 52 696 0 41 53 21 .254 .4191 .0015875 29
 53 692 0 51 54 52 .254 -.3683 .0015875 18 51 689 55 56 41 57 53 ?1 29 54 688 0
 57 58 53 .2413 -.381 .0015875 18 57 685 59 60 51 61 54 ?1 29 58 684 0 61 62 54
 .10795 -.381 .0015875 18 61 681 63 64 57 65 58 ?1 29 62 680 0 65 66 58 -.254 .4
191 .0015875 18 65 677 67 68 61 69 62 ?1 29 66 676 0 69 70 62 -.254 -.3683 .0015
875 18 69 673 71 72 65 73 66 ?1 29 70 662 0 73 74 66 -.10795 -.381 .0015875 18 7
3 659 75 76 69 77 70 ?1 29 74 658 0 77 78 70 -.2413 -.381 .0015875 18 77 655 79
 80 73 81 74 ?1 29 78 624 0 81 82 74 -.10795 -.381 0 18 81 621 83 84 77 85 78 ?1
 29 82 620 0 85 86 78 -.2413 -.381 0 18 85 617 87 88 81 89 82 ?1 29 86 616 0 89
 90 82 .2413 -.381 0 18 89 613 91 92 85 93 86 ?1 29 90 612 0 93 94 86 .10795 -.3
81 0 18 93 609 95 96 89 97 90 ?1 29 94 608 0 97 98 90 .254 .4191 0 18 97 605 31
 99 93 100 94 ?1 29 98 604 0 100 101 94 .254 -.3683 0 18 100 601 102 103 97 104
 98 ?1 29 101 600 0 104 105 98 .2413 .4318 0 18 104 597 30 106 100 107 101 ?1 29
 105 596 0 107 108 101 -.2413 .4318 0 18 107 593 42 109 104 110 105 ?1 29 108 59
2 0 110 111 105 -.254 .4191 0 18 110 589 43 112 107 113 108 ?1 29 111 588 0 113
 114 108 -.254 -.3683 0 18 113 585 115 116 110 117 111 ?1 29 114 574 0 117 118 1
11 -.09525 -.3683 .0015875 18 117 571 119 120 113 121 114 ?1 29 118 570 0 121 12
2 114 -.09525 -.3048 .0015875 18 121 567 123 124 117 125 118 ?1 29 122 566 0 125
 126 118 -.09525 -.3683 0 18 125 563 127 128 121 129 122 ?1 29 126 562 0 129 130
 122 -.09525 -.3048 0 18 129 559 131 132 125 133 126 ?1 29 130 548 0 133 134 126
 -.08255 -.2921 .0015875 18 133 545 135 24 129 136 130 ?1 29 134 544 0 136 137 1
30 .08255 -.2921 .0015875 18 136 541 138 139 133 140 134 ?1 29 137 540 0 140 141
 134 -.08255 -.2921 0 18 140 537 142 143 136 144 137 ?1 29 141 536 0 144 145 137
 .08255 -.2921 0 18 144 533 146 147 140 148 141 ?1 29 145 522 0 148 149 141 .095
25 -.3683 .0015875 18 148 519 150 151 144 152 145 ?1 29 149 518 0 152 153 145 .0
9525 -.3048 .0015875 18 152 515 154 155 148 156 149 ?1 29 153 514 0 156 157 149
 .09525 -.3683 0 18 156 511 158 159 152 160 153 ?1 29 157 510 0 160 0 153 .09525
 -.3048 0 18 160 507 161 162 156 0 157 ?1 81 1 161 1036 29 160 0 0 146 138 163 1
7 162 0 164 165 166 160 147 167 0 168 -15 255 164 823 0 169 170 0 17 165 0 164 1
69 162 152 168 171 0 0 -17 166 0 164 162 169 144 139 172 0 0 -17 147 0 173 174 1
75 144 162 167 0 176 +16 167 775 177 ?147 178 179 180 0 0 1 17 168 0 181 182 183
 160 165 171 0 175 +15 181 335 0 183 184 0 17 182 0 181 151 168 156 175 185 0 18
6 +17 183 0 181 168 151 152 187 188 0 165 -16 171 528 189 ?168 190 191 192 0 0 1
 17 175 0 173 147 159 160 182 185 0 0 -15 173 209 0 193 194 0 17 159 0 173 175 1
95 156 96 196 0 182 +16 185 508 197 ?182 198 199 200 0 0 1 81 1 197 1095 29 185
 0 0 201 202 203 16 198 610 204 ?205 206 185 207 0 0 1 16 199 534 208 ?174 185 2
09 210 0 0 1 30 255 200 302 0 185 210 207 0 +.09525 -.33655 0 0 -1 0 30 210 303
 0 199 211 200 0 +277555756156289e-31 -.2921 0 -1 0 0 30 207 301 0 198 200 212 0
 +.174625 -.381 0 1 0 0 30 212 300 0 206 207 213 0 +.254 .0254 0 273184799366426
5e-31 1 0 16 206 602 214 ?215 216 198 212 0 0 1 30 213 299 0 216 212 217 0 +1110
223024625156e-31 .4318 0 1 0 0 16 216 594 218 ?219 220 206 213 0 0 1 30 217 525
 0 191 213 192 0 -.09525 -.3683 .0015875 0 0 -1 16 191 523 221 ?151 171 222 217
 0 0 1 30 192 530 0 171 217 223 0 +.09525 -.3048 .0015875 0 0 -1 30 223 551 0 19
0 192 224 0 +-.08255 -.2921 0 0 0 -1 16 190 549 225 ?226 172 171 223 0 0 1 30 22
4 556 0 172 223 227 0 -.08255 -.2921 .0015875 0 0 -1 16 172 554 228 ?139 229 190
 224 0 0 1 30 227 577 0 229 224 230 0 +-.09525 -.3683 0 0 0 -1 16 229 575 231 ?2
32 233 172 227 0 0 1 30 230 582 0 233 227 234 0 --.09525 -.3048 .0015875 0 0 -1
 16 233 580 235 ?124 236 229 230 0 0 1 31 234 627 0 236 230 237 0 --.2413 .4191
 0 0 0 1 1 0 0 .0127 16 236 625 238 ?109 239 233 234 0 0 1 31 237 632 0 239 234
 240 0 -.2413 .4191 0 0 0 1 1 0 0 .0127 16 239 630 241 ?99 242 236 237 0 0 1 31
 240 637 0 242 237 243 0 --.2413 -.3683 0 0 0 1 1 0 0 .0127 16 242 635 244 ?116
 245 239 240 0 0 1 31 243 642 0 245 240 246 0 -.2413 -.3683 0 0 0 1 1 0 0 .0127
 16 245 640 247 ?92 196 242 243 0 0 1 31 246 647 0 196 243 248 0 -.10795 -.3683
 0 0 0 1 1 0 0 .0127 16 196 645 249 ?159 250 245 246 0 0 1 31 248 652 0 250 246
 251 0 --.10795 -.3683 0 0 0 1 1 0 0 .0127 16 250 650 252 ?84 253 196 248 0 0 1
 30 251 665 0 253 248 254 0 +-.2413 -.381 0 0 0 -1 16 253 663 255 ?256 257 250 2
51 0 0 1 30 254 670 0 257 251 258 0 --.10795 -.381 .0015875 0 0 -1 16 257 668 25
9 ?76 260 253 254 0 0 1 31 258 707 0 260 254 261 0 +-.2413 .4191 .0015875 0 0 1
 1 0 0 .0127 16 260 705 262 ?68 37 257 258 0 0 1 31 261 712 0 37 258 263 0 +.241
3 .4191 .0015875 0 0 1 1 0 0 .0127 16 37 710 264 ?27 265 260 261 0 0 1 31 263 71
7 0 265 261 266 0 +-.2413 -.3683 .0015875 0 0 1 1 0 0 .0127 16 265 715 267 ?80 2
68 37 263 0 0 1 31 266 722 0 268 263 269 0 +.2413 -.3683 .0015875 0 0 1 1 0 0 .0
127 16 268 720 270 ?56 271 265 266 0 0 1 31 269 727 0 271 266 272 0 +.10795 -.36
83 .0015875 0 0 1 1 0 0 .0127 16 271 725 273 ?64 274 268 269 0 0 1 31 272 732 0
 274 269 275 0 +-.10795 -.3683 .0015875 0 0 1 1 0 0 .0127 16 274 730 276 ?120 27
7 271 272 0 0 1 30 275 737 0 277 272 278 0 -.2413 -.381 .0015875 0 0 -1 16 277 7
35 279 ?60 280 274 275 0 0 1 30 278 742 0 280 275 281 0 +.10795 -.381 .0015875 0
 0 -1 16 280 740 282 ?283 284 277 278 0 0 1 30 281 747 0 284 278 285 0 -.254 .41
91 .0015875 0 0 -1 16 284 745 286 ?50 287 280 281 0 0 1 30 285 752 0 287 281 288
 0 +.254 -.3683 .0015875 0 0 -1 16 287 750 289 ?290 291 284 285 0 0 1 30 288 757
 0 291 285 292 0 +-.254 .4191 .0015875 0 0 -1 16 291 755 293 ?294 295 287 288 0
 0 1 30 292 762 0 295 288 296 0 --.254 -.3683 .0015875 0 0 -1 16 295 760 297 ?72
 48 291 292 0 0 1 30 296 767 0 48 292 298 0 --.2413 .4318 .0015875 0 0 -1 16 48
 765 299 ?40 179 295 296 0 0 1 30 298 772 0 179 296 180 0 +.2413 .4318 0 0 0 -1
 16 179 770 300 ?301 167 48 298 0 0 1 31 180 791 0 167 298 302 0 +.08255 -.3048
 0 0 0 1 1 0 0 .0127 31 302 792 0 178 180 20 0 -.08255 -.3048 .0015875 0 0 1 1 0
 0 .0127 16 178 779 303 ?155 25 167 302 0 0 1 31 20 793 0 25 302 7 0 +-.08255 -.
3048 0 0 0 1 1 0 0 .0127 16 25 783 304 ?132 10 178 20 0 0 1 81 1 304 1071 29 25
 0 0 189 23 305 17 132 0 173 193 174 129 143 25 0 306 +17 193 0 173 84 132 125 3
06 209 0 0 +17 174 0 173 132 147 140 176 199 0 0 +17 143 0 307 308 309 140 132 2
5 0 226 -17 306 0 310 124 232 129 193 209 0 309 -15 310 339 0 306 311 0 17 124 0
 310 312 306 121 309 233 0 313 +17 232 0 310 306 312 125 314 229 0 193 +16 209 5
60 315 ?193 199 316 211 0 0 1 17 309 0 307 143 317 129 124 233 0 0 -15 307 844 0
 317 318 0 17 317 0 307 309 308 121 24 10 0 0 -17 308 0 307 317 143 133 226 190
 0 0 -17 24 0 33 319 313 133 317 10 0 320 +15 33 12 0 321 322 0 17 319 0 33 155
 24 136 320 323 0 169 -17 313 0 33 24 120 121 312 324 0 317 -17 320 0 325 226 13
9 133 319 323 0 308 +15 325 337 0 176 326 0 17 226 0 325 176 320 140 308 190 0 1
74 +17 139 0 325 320 176 136 166 172 0 319 +16 323 542 201 ?320 188 324 327 0 0
 1 81 1 201 1094 29 323 0 0 208 197 328 16 188 516 202 ?187 329 323 330 0 0 1 16
 324 568 331 ?312 323 332 333 0 0 1 30 327 60 0 323 333 330 0 +277555756156289e-
31 -.2921 .0015875 -1 0 0 30 333 55 0 324 334 327 0 +-.09525 -.33655 .0015875 -6
24422398551832e-30 -1 0 30 330 65 0 188 327 335 0 +.09525 -.33655 .0015875 0 -1
 0 30 335 70 0 329 330 336 0 +.174625 -.381 .0015875 1 0 0 16 329 682 337 ?338 3
39 188 335 0 0 1 30 336 75 0 339 335 340 0 +.254 .0254 .0015875 2731847993664265
e-31 1 0 16 339 690 341 ?35 222 329 336 0 0 1 30 340 80 0 222 336 342 0 +1110223
024625156e-31 .4318 .0015875 1 0 0 16 222 698 343 ?38 191 339 340 0 0 1 31 342 3
12 0 344 340 345 0 +.2413 -.3429 0 0 0 1 1 0 0 .003175 16 344 262 346 ?347 348 0
 342 0 0 1 31 345 311 0 348 342 349 0 +.2413 -.3175 0 0 0 1 1 0 0 .003175 16 348
 258 350 ?351 352 344 345 0 0 1 31 349 310 0 352 345 353 0 +-.2413 -.3429 0 0 0
 1 1 0 0 .003175 16 352 254 354 ?355 356 348 349 0 0 1 31 353 309 0 356 349 357
 0 +-.2413 -.3175 0 0 0 1 1 0 0 .003175 16 356 250 358 ?359 360 352 353 0 0 1 31
 357 308 0 360 353 361 0 +.2413 .4191 0 0 0 1 1 0 0 .003175 16 360 246 362 ?363
 364 356 357 0 0 1 31 361 307 0 364 357 365 0 +-.2413 .4191 0 0 0 1 1 0 0 .00317
5 16 364 242 366 ?367 368 360 361 0 0 1 30 365 306 0 368 361 369 0 +-.254 .0254
 0 2731847993664265e-31 1 0 16 368 586 370 ?371 316 364 365 0 0 1 30 369 305 0 3
16 365 211 0 +-.174625 -.381 0 1 0 0 16 316 618 372 ?373 209 368 369 0 0 1 30 21
1 304 0 209 369 210 0 +-.09525 -.33655 0 -624422398551832e-30 -1 0 81 1 372 1103
 29 316 0 0 374 375 376 17 373 0 377 76 256 81 378 316 0 379 +15 377 341 0 373 3
80 0 17 76 0 377 381 373 73 379 257 0 321 +17 256 0 377 373 381 85 382 253 0 378
 +17 378 0 173 116 84 85 373 316 0 0 -17 379 0 383 128 384 81 76 257 0 0 -15 383
 865 0 384 385 0 17 128 0 383 314 379 125 84 250 0 232 -17 384 0 383 379 314 73
 120 274 0 0 -17 314 0 383 384 128 117 232 229 0 0 -17 120 0 33 313 321 117 384
 274 0 312 +17 321 0 33 120 80 73 381 332 0 384 +17 312 0 310 232 124 117 313 32
4 0 314 +17 80 0 33 321 386 77 387 265 0 381 +17 381 0 377 256 76 77 321 332 0 3
82 -16 332 656 375 ?321 324 388 334 0 0 1 81 1 375 1104 29 332 0 0 372 204 389 1
6 388 674 374 ?390 332 391 392 0 0 1 30 334 50 0 332 392 333 0 +-.174625 -.381 .
0015875 1 0 0 30 392 45 0 388 393 334 0 +-.254 .0254 .0015875 2731847993664265e-
31 1 0 31 393 40 0 391 394 392 0 +-.2413 .4191 .0015875 0 0 1 1 0 0 .003175 16 3
91 38 395 ?396 388 397 393 0 0 1 31 394 35 0 397 398 393 0 +.2413 .4191 .0015875
 0 0 1 1 0 0 .003175 16 397 33 399 ?400 391 401 394 0 0 1 31 398 30 0 401 402 39
4 0 +-.2413 -.3175 .0015875 0 0 1 1 0 0 .003175 16 401 28 403 ?404 397 405 398 0
 0 1 31 402 25 0 405 406 398 0 +-.2413 -.3429 .0015875 0 0 1 1 0 0 .003175 16 40
5 23 407 ?408 401 409 402 0 0 1 31 406 20 0 409 410 402 0 +.2413 -.3175 .0015875
 0 0 1 1 0 0 .003175 16 409 18 411 ?412 405 220 406 0 0 1 31 410 15 0 220 0 406
 0 +.2413 -.3429 .0015875 0 0 1 1 0 0 .003175 16 220 13 413 ?414 409 216 410 0 0
 1 81 1 413 467 29 220 0 0 346 415 416 17 414 0 417 414 414 0 418 220 0 0 +15 41
7 365 0 414 419 420 17 418 0 421 418 418 0 414 220 0 0 -15 421 6 0 418 322 422 1
4 255 322 1 423 ?194 424 421 5 425 +0 0 194 424 22 15 422 7 0 426 322 427 17 426
 0 422 426 426 0 412 409 0 0 -15 427 8 0 428 322 429 17 428 0 427 428 428 0 408
 405 0 0 -15 429 9 0 430 322 431 17 430 0 429 430 430 0 404 401 0 0 -15 431 10 0
 432 322 433 17 432 0 431 432 432 0 400 397 0 0 -15 433 11 0 434 322 33 17 434 0
 433 434 434 0 396 391 0 0 -17 396 0 435 396 396 0 434 391 0 0 +15 435 345 0 396
 436 437 14 436 346 438 ?439 440 435 5 441 +0 0 439 440 22 15 437 347 0 442 436
 0 17 442 0 437 442 442 0 367 364 0 0 -17 367 0 443 367 367 0 442 364 0 0 +15 44
3 208 0 367 194 173 14 194 186 444 ?170 322 445 5 446 -0 0 170 322 22 81 1 444 1
192 447 194 448 0 423 449 450 14 170 822 449 ?318 194 164 5 451 -0 0 318 194 22
 15 445 203 0 347 194 452 50 255 446 298 0 194 425 453 0 +0 0 0 0 0 1 1 0 0 13 2
2 125 0 0 0 0 0 0 9 16 14 16 344 454 ?380 0 455 5 456 +0 0 380 0 22 81 1 454 117
7 447 16 457 0 0 458 459 14 380 342 458 ?311 16 377 5 460 -0 0 311 16 22 15 455
 343 0 461 16 0 50 456 376 0 16 460 441 0 +-.254 .0254 .0015875 -1 2731847993664
265e-31 0 -2731847993664265e-31 -1 0 50 460 375 0 380 462 456 0 +-.174625 -.381
 .0015875 0 1 0 0 0 1 51 441 377 0 436 456 463 0 --.2413 .4191 .0015875 0 0 -1 .
003175 -1 0 0 51 463 378 0 439 441 464 0 -.2413 .4191 .0015875 0 0 -1 .003175 -1
 0 0 14 439 350 465 ?466 436 467 5 463 +0 0 466 436 22 51 464 379 0 466 463 468
 0 --.2413 -.3175 .0015875 0 0 -1 .003175 -1 0 0 14 466 354 469 ?470 439 471 5 4
64 +0 0 470 439 22 51 468 380 0 470 464 472 0 --.2413 -.3429 .0015875 0 0 -1 .00
3175 -1 0 0 14 470 358 473 ?474 466 475 5 468 +0 0 474 466 22 51 472 381 0 474 4
68 476 0 -.2413 -.3175 .0015875 0 0 -1 .003175 -1 0 0 14 474 362 477 ?419 470 47
8 5 472 +0 0 419 470 22 51 476 382 0 419 472 451 0 -.2413 -.3429 .0015875 0 0 -1
 .003175 -1 0 0 14 419 366 479 ?424 474 417 5 476 +0 0 424 474 22 51 451 834 0 1
70 476 480 0 +.08255 -.3048 .0015875 0 0 -1 .0127 -1 0 0 51 480 855 0 318 451 48
1 0 +-.08255 -.3048 .0015875 0 0 1 .0127 1 0 0 14 318 843 482 ?385 170 307 5 480
 -0 0 385 170 22 51 481 876 0 385 480 483 0 +-.10795 -.3683 .0015875 0 0 1 .0127
 1 0 0 14 385 864 484 ?485 318 383 5 481 +0 0 485 318 22 51 483 897 0 485 481 48
6 0 +.10795 -.3683 .0015875 0 0 -1 .0127 -1 0 0 14 485 885 487 ?488 385 489 5 48
3 +0 0 488 385 22 51 486 918 0 488 483 490 0 +.2413 -.3683 .0015875 0 0 -1 .0127
 -1 0 0 14 488 906 491 ?492 485 493 5 486 +0 0 492 485 22 51 490 939 0 492 486 1
9 0 +-.2413 -.3683 .0015875 0 0 1 .0127 1 0 0 14 492 927 494 ?495 488 496 5 490
 +0 0 495 488 22 51 19 960 0 495 490 6 0 +.2413 .4191 .0015875 0 0 1 .0127 1 0 0
 14 495 948 497 ?18 492 498 5 19 +0 0 18 492 22 81 1 497 1199 447 495 499 0 494
 500 501 14 18 969 500 ?0 495 502 5 6 +0 0 0 495 22 15 498 949 0 36 495 0 17 36
 0 498 503 504 41 27 37 0 0 -17 503 0 498 106 36 97 50 284 0 0 -17 504 0 498 36
 106 11 301 179 0 0 -17 106 0 498 504 503 104 99 239 0 301 -17 301 0 45 46 38 10
4 504 179 0 219 +15 45 329 0 38 424 0 17 46 0 45 40 301 107 219 216 0 47 -17 38
 0 45 301 40 11 34 222 0 504 +17 219 0 173 99 109 104 46 216 0 0 +17 99 0 173 50
5 219 97 106 239 0 215 +17 109 0 173 219 371 107 112 236 0 46 +17 371 0 173 109
 116 110 461 368 0 0 +17 112 0 502 506 47 110 109 236 0 294 -15 502 970 0 507 18
 0 17 506 0 502 507 112 65 294 291 0 0 -17 47 0 502 112 507 107 40 48 0 0 -17 29
4 0 455 461 390 110 506 291 0 371 +17 461 0 455 72 294 113 371 368 0 508 -17 390
 0 455 294 72 65 386 388 0 506 +17 72 0 455 390 461 69 508 295 0 386 +17 386 0 3
3 80 68 69 390 388 0 387 -17 68 0 33 386 34 65 507 260 0 390 +17 387 0 496 508 3
82 69 80 265 0 0 -15 496 928 0 387 492 0 17 508 0 496 88 387 113 72 295 0 0 -17
 382 0 496 387 88 77 256 253 0 0 -17 88 0 496 382 508 85 116 242 0 256 -17 116 0
 173 371 378 113 88 242 0 461 +17 34 0 33 68 27 28 38 222 0 507 -17 507 0 502 47
 506 28 68 260 0 0 -17 505 0 173 92 99 100 215 206 0 0 -17 215 0 509 50 290 97 5
05 206 0 503 +15 509 331 0 510 440 0 17 50 0 509 510 215 41 503 284 0 35 +17 290
 0 509 215 510 100 511 287 0 505 +17 510 0 509 290 50 51 35 339 0 511 -17 511 0
 493 512 103 51 290 287 0 0 -15 493 907 0 512 488 0 17 512 0 493 513 511 57 56 2
68 0 0 -17 103 0 493 511 513 100 92 245 0 290 -17 513 0 493 103 512 89 60 277 0
 0 -17 92 0 173 195 505 89 103 245 0 205 +17 195 0 173 159 92 93 205 198 0 0 -17
 205 0 514 60 283 89 195 198 0 513 +15 514 333 0 515 516 0 17 60 0 514 515 205 5
7 513 277 0 338 +17 283 0 514 205 515 93 517 280 0 195 +17 515 0 514 283 60 61 3
38 329 0 517 -17 517 0 489 518 96 61 283 280 0 0 -15 489 886 0 518 485 0 17 518
 0 489 186 517 148 64 271 0 0 -17 96 0 489 517 186 93 159 196 0 283 -17 186 0 48
9 96 518 156 151 191 0 0 -17 151 0 181 183 182 148 186 191 0 187 +17 187 0 33 64
 155 148 183 188 0 518 +17 64 0 33 338 187 61 518 271 0 515 +17 155 0 33 187 319
 152 169 178 0 183 +17 169 0 164 166 165 136 155 178 0 0 -17 338 0 33 56 64 57 5
15 329 0 512 +17 56 0 33 35 338 51 512 268 0 510 +17 35 0 33 27 56 41 510 339 0
 36 +14 516 334 519 ?440 184 514 5 520 -0 0 440 184 22 81 1 519 1182 447 516 521
 0 522 523 524 14 440 332 523 ?436 516 509 5 525 -0 0 436 516 22 14 184 336 522
 ?516 326 181 5 526 -0 0 516 326 22 50 520 371 0 516 525 526 0 +.174625 -.381 .0
015875 0 1 0 0 0 1 50 525 370 0 440 453 520 0 +.254 .0254 .0015875 -1 2731847993
664265e-31 0 -2731847993664265e-31 -1 0 50 526 372 0 184 520 527 0 +.09525 -.336
55 .0015875 1 0 0 0 0 -1 50 527 373 0 326 526 462 0 +277555756156289e-31 -.2921
 .0015875 0 -1 0 0 0 -1 14 326 338 528 ?184 311 325 5 527 +0 0 184 311 22 50 462
 374 0 311 527 460 0 +-.09525 -.33655 .0015875 1 -624422398551832e-30 0 62442239
8551832e-30 1 0 14 311 340 529 ?326 380 310 5 462 +0 0 326 380 22 81 1 529 1179
 447 311 530 0 458 528 531 80 7 CCCCCDI12 legal_owners0 17 1 lCZ1 447 532 533 80
15 0 0 0 0 3 5 0 0 0 FFFFTFFFFFFFFFFFF2 81 1 530 1132 534 311 535 529 536 537 53
8 81 1 458 1178 447 380 536 0 454 529 539 81 1 528 1180 447 326 537 0 529 522 54
0 83 255 1 531 .250980392156863 81 1 537 1134 534 326 541 528 530 542 543 81 1 5
22 1181 447 184 542 0 528 519 544 83 1 540 .250980392156863 81 1 542 1136 534 18
4 545 522 537 521 546 83 1 544 .250980392156863 80 1 534 0 547 8001 0 0 0 0 3 5
 0 0 0 FFFFTFTFFFFFFFFFF2 81 1 545 1119 29 184 0 542 541 535 548 81 1 521 1138 5
34 516 549 519 542 550 551 83 3 546 1 1 1 81 1 549 1124 29 516 0 521 552 0 553 8
1 1 550 1140 534 440 554 523 521 555 556 83 3 551 1 1 1 81 1 554 1121 29 440 0 5
50 535 557 558 81 1 523 1183 447 440 550 0 519 438 559 81 1 555 1142 534 436 415
 438 550 560 561 83 3 556 1 1 1 81 1 415 485 29 436 0 555 413 562 563 81 1 438 1
184 447 436 555 0 523 465 564 81 1 560 1144 534 439 562 465 555 565 566 83 3 561
 1 1 1 81 1 562 486 29 439 0 560 415 567 568 81 1 465 1185 447 439 560 0 438 469
 569 81 1 565 1146 534 466 567 469 560 570 571 83 3 566 1 1 1 81 1 567 487 29 46
6 0 565 562 572 573 81 1 469 1186 447 466 565 0 465 473 574 81 1 570 1148 534 47
0 572 473 565 575 576 83 3 571 1 1 1 81 1 572 488 29 470 0 570 567 577 578 81 1
 473 1187 447 470 570 0 469 477 579 81 1 575 1150 534 474 577 477 570 580 581 83
 3 576 1 1 1 81 1 577 489 29 474 0 575 572 582 583 81 1 477 1188 447 474 575 0 4
73 479 584 81 1 580 1152 534 419 582 479 575 585 586 83 3 581 1 1 1 81 1 582 490
 29 419 0 580 577 587 588 81 1 479 1189 447 419 580 0 477 589 590 81 1 585 1154
 534 424 591 589 580 592 593 83 3 586 1 1 1 14 424 330 589 ?322 419 45 5 453 +0
 0 322 419 22 81 1 591 1115 29 424 0 585 594 595 596 81 1 589 1190 447 424 585 0
 479 423 597 81 1 592 1156 534 322 598 423 585 448 599 83 3 593 1 1 1 81 1 598 1
117 29 322 0 592 595 541 600 81 1 423 1191 447 322 592 0 589 444 601 81 1 448 11
58 534 194 595 444 592 602 603 83 3 599 1 1 1 81 1 595 1116 29 194 0 448 591 598
 604 81 1 602 1160 534 170 605 449 448 606 607 83 3 603 1 1 1 81 1 605 1109 29 1
70 0 602 608 609 610 81 1 449 1193 447 170 602 0 444 482 611 81 1 606 1162 534 3
18 609 482 602 612 613 83 3 607 1 1 1 81 1 609 1110 29 318 0 606 605 614 615 81
 1 482 1194 447 318 606 0 449 484 616 81 1 612 1164 534 385 617 484 606 618 619
 83 3 613 1 1 1 81 1 617 1112 29 385 0 612 614 620 621 81 1 484 1195 447 385 612
 0 482 487 622 81 1 618 1166 534 485 614 487 612 623 624 83 3 619 1 1 1 81 1 614
 1111 29 485 0 618 609 617 625 81 1 487 1196 447 485 618 0 484 491 626 81 1 623
 1168 534 488 620 491 618 627 628 83 3 624 1 1 1 81 1 620 1113 29 488 0 623 617
 594 629 81 1 491 1197 447 488 623 0 487 494 630 81 1 627 1170 534 492 594 494 6
23 499 631 83 3 628 1 1 1 81 1 594 1114 29 492 0 627 620 591 632 81 1 494 1198 4
47 492 627 0 491 497 633 81 1 499 1172 534 495 608 497 627 634 635 83 3 631 1 1
 1 81 1 608 1108 29 495 0 499 636 605 637 81 1 634 1174 534 18 636 500 499 0 638
 83 3 635 1 1 1 81 1 636 1107 29 18 0 634 337 608 639 81 1 500 1200 447 18 634 0
 497 0 640 83 3 638 1 1 1 83 1 640 .250980392156863 80 1 29 641 642 9000 0 0 0 0
 3 6 0 0 0 FFTFTFTTFFFFFFFFF1 81 1 337 1106 29 329 0 0 204 636 643 82 255 3 639
 7 0 2 81 1 204 1105 29 198 0 0 375 337 644 82 3 643 7 47 1 82 3 644 7 46 1 79 2
55 9 642 BTI/DetId82 3 637 7 1 2 83 1 633 .250980392156863 82 3 632 7 7 2 83 1 6
30 .250980392156863 82 3 629 7 6 2 83 1 626 .250980392156863 82 3 625 7 4 2 83 1
 622 .250980392156863 82 3 621 7 5 2 83 1 616 .250980392156863 82 3 615 7 3 2 83
 1 611 .250980392156863 82 3 610 7 2 2 82 3 604 7 9 2 83 1 601 .250980392156863
 81 1 541 1118 29 326 0 537 598 545 645 82 3 600 7 10 2 82 3 645 7 11 2 83 1 597
 .250980392156863 82 3 596 7 8 2 50 453 369 0 424 446 525 0 +1110223024625156e-3
1 .4318 .0015875 0 1 0 0 0 1 83 1 590 .250980392156863 81 1 587 498 29 1 0 646 5
82 42 647 82 3 588 6 8 2 81 1 646 1125 648 1 587 649 0 0 650 81 1 42 1027 29 107
 0 0 587 39 651 82 3 647 6 0 3 82 3 651 7 0 0 80 1 648 652 653 8038 0 0 0 0 0 0
 0 0 0 TTTTTTTTTTTTTFTFT10 81 1 649 1126 652 1 646 13 0 0 654 98 255 6 650 80 97
 114 116 32 49 80 1 652 655 656 8017 0 0 0 0 0 0 0 0 0 TTTTTTTTTTTTTFTFT3 81 1 1
3 1127 657 1 649 2 0 0 658 84 255 6 654 Part 180 1 657 534 659 8040 0 0 0 0 3 5
 0 0 0 TTTFFFFFFFFFFFFFF2 83 3 658 1 1 1 79 17 659 SDL/TYSA_COLOUR_279 13 656 SD
L/TYSA_NAME79 14 653 SDL/TYSA_UNAME83 1 584 .250980392156863 82 3 583 6 7 2 83 1
 579 .250980392156863 82 3 578 6 6 2 83 1 574 .250980392156863 82 3 573 6 5 2 83
 1 569 .250980392156863 82 3 568 6 4 2 83 1 564 .250980392156863 82 3 563 6 3 2
 83 1 559 .250980392156863 81 1 535 1120 29 311 0 530 545 554 660 81 1 557 1122
 29 16 0 457 554 552 661 82 3 558 7 14 2 81 1 457 1128 534 16 557 454 0 536 662
 81 1 552 1123 29 380 0 536 557 549 663 82 3 661 7 15 2 81 1 536 1130 534 380 55
2 458 457 530 664 82 3 663 7 16 2 83 3 664 1 1 1 83 3 662 1 1 1 82 3 660 7 13 2
 82 3 553 7 17 2 82 3 548 7 12 2 79 15 547 SDL/TYSA_COLOUR83 3 543 1 1 1 83 1 53
9 .250980392156863 83 3 538 1 1 1 79 21 533 SDL/TYSA_TRANSLUCENCY83 1 524 .25098
0392156863 83 1 501 .250980392156863 15 478 361 0 412 474 665 17 412 0 478 412 4
12 0 426 409 0 0 +15 665 363 0 666 474 0 17 666 0 665 666 666 0 351 348 0 0 -17
 351 0 452 351 351 0 666 348 0 0 +15 452 204 0 351 194 667 15 667 205 0 355 194
 668 17 355 0 667 355 355 0 669 352 0 0 +15 668 206 0 359 194 670 17 359 0 668 3
59 359 0 671 356 0 0 +15 670 207 0 363 194 443 17 363 0 670 363 363 0 672 360 0
 0 +17 672 0 673 672 672 0 363 360 0 0 -15 673 351 0 672 439 0 17 671 0 674 671
 671 0 359 356 0 0 -15 674 355 0 671 466 0 17 669 0 675 669 669 0 355 352 0 0 -1
5 675 359 0 669 470 0 15 475 357 0 408 470 675 17 408 0 475 408 408 0 428 405 0
 0 +15 471 353 0 404 466 674 17 404 0 471 404 404 0 430 401 0 0 +15 467 349 0 40
0 439 673 17 400 0 467 400 400 0 432 397 0 0 +83 1 459 .250980392156863 50 425 3
 0 322 0 446 0 +0 0 .0015875 0 0 1 1 0 0 17 347 0 445 347 347 0 676 344 0 0 +17
 676 0 420 676 676 0 347 344 0 0 -15 420 367 0 676 419 0 83 1 450 .2509803921568
63 81 1 346 466 29 344 0 0 411 413 677 82 3 416 6 21 1 81 1 411 465 29 409 0 0 3
50 346 678 82 3 677 6 20 1 81 1 350 464 29 348 0 0 407 411 679 82 3 678 6 19 1 8
1 1 407 463 29 405 0 0 354 350 680 82 3 679 6 18 1 81 1 354 462 29 352 0 0 403 4
07 681 82 3 680 6 17 1 81 1 403 461 29 401 0 0 358 354 682 82 3 681 6 16 1 81 1
 358 460 29 356 0 0 399 403 683 82 3 682 6 15 1 81 1 399 459 29 397 0 0 362 358
 684 82 3 683 6 14 1 81 1 362 458 29 360 0 0 395 399 685 82 3 684 6 13 1 81 1 39
5 457 29 391 0 0 366 362 686 82 3 685 6 12 1 81 1 366 456 29 364 0 0 0 395 687 8
2 3 686 6 11 1 82 3 687 6 10 1 81 1 374 1102 29 388 0 0 370 372 688 81 1 370 110
1 29 368 0 0 341 374 689 82 3 688 7 43 1 81 1 341 1100 29 339 0 0 214 370 690 82
 3 689 7 42 1 81 1 214 1099 29 206 0 0 331 341 691 82 3 690 7 41 1 81 1 331 1098
 29 324 0 0 315 214 692 82 3 691 7 40 1 81 1 315 1097 29 209 0 0 202 331 693 82
 3 692 7 39 1 81 1 202 1096 29 188 0 0 197 315 694 82 3 693 7 38 1 82 3 694 7 37
 1 82 3 389 7 45 1 17 84 0 173 378 193 81 128 250 0 373 +82 3 376 7 44 1 81 1 34
3 1092 29 222 0 0 218 208 695 81 1 218 1091 29 216 0 0 255 343 696 81 1 208 1093
 29 199 0 0 343 201 697 82 3 695 7 33 1 82 3 697 7 34 1 81 1 255 1090 29 253 0 0
 297 218 698 82 3 696 7 32 1 81 1 297 1089 29 295 0 0 267 255 699 82 3 698 7 31
 1 81 1 267 1088 29 265 0 0 244 297 700 82 3 699 7 30 1 81 1 244 1087 29 242 0 0
 279 267 701 82 3 700 7 29 1 81 1 279 1086 29 277 0 0 289 244 702 82 3 701 7 28
 1 81 1 289 1085 29 287 0 0 270 279 703 82 3 702 7 27 1 81 1 270 1084 29 268 0 0
 247 289 704 82 3 703 7 26 1 81 1 247 1083 29 245 0 0 259 270 705 82 3 704 7 25
 1 81 1 259 1082 29 257 0 0 231 247 706 82 3 705 7 24 1 81 1 231 1081 29 229 0 0
 276 259 707 82 3 706 7 23 1 81 1 276 1080 29 274 0 0 252 231 708 82 3 707 7 22
 1 81 1 252 1079 29 250 0 0 282 276 709 82 3 708 7 21 1 81 1 282 1078 29 280 0 0
 221 252 710 82 3 709 7 20 1 81 1 221 1077 29 191 0 0 273 282 711 82 3 710 7 19
 1 81 1 273 1076 29 271 0 0 249 221 712 82 3 711 7 18 1 81 1 249 1075 29 196 0 0
 235 273 713 82 3 712 7 17 1 81 1 235 1074 29 233 0 0 225 249 714 82 3 713 7 16
 1 81 1 225 1073 29 190 0 0 23 235 715 82 3 714 7 15 1 81 1 23 1072 29 10 0 0 30
4 225 716 82 3 715 7 14 1 82 3 716 7 13 1 82 3 328 7 35 1 17 176 0 325 139 226 1
44 174 199 0 166 -81 1 189 1070 29 171 0 0 228 304 717 82 3 305 7 12 1 81 1 228
 1069 29 172 0 0 303 189 718 82 3 717 7 11 1 81 1 303 1068 29 178 0 0 177 228 71
9 82 3 718 7 10 1 81 1 177 1067 29 167 0 0 286 303 720 82 3 719 7 9 1 81 1 286 1
066 29 284 0 0 264 177 721 82 3 720 7 8 1 81 1 264 1065 29 37 0 0 241 286 722 82
 3 721 7 7 1 81 1 241 1064 29 239 0 0 300 264 723 82 3 722 7 6 1 81 1 300 1063 2
9 179 0 0 293 241 724 82 3 723 7 5 1 81 1 293 1062 29 291 0 0 262 300 725 82 3 7
24 7 4 1 81 1 262 1061 29 260 0 0 238 293 726 82 3 725 7 3 1 81 1 238 1060 29 23
6 0 0 299 262 727 82 3 726 7 2 1 81 1 299 1059 29 48 0 0 79 238 728 82 3 727 7 1
 1 81 1 79 1058 29 77 0 0 71 299 729 82 3 728 7 0 1 81 1 71 1057 29 69 0 0 87 79
 730 82 3 729 7 31 0 81 1 87 1056 29 85 0 0 115 71 731 82 3 730 7 30 0 81 1 115
 1055 29 113 0 0 59 87 732 82 3 731 7 29 0 81 1 59 1054 29 57 0 0 55 115 733 82
 3 732 7 28 0 81 1 55 1053 29 51 0 0 91 59 734 82 3 733 7 27 0 81 1 91 1052 29 8
9 0 0 102 55 735 82 3 734 7 26 0 81 1 102 1051 29 100 0 0 75 91 736 82 3 735 7 2
5 0 81 1 75 1050 29 73 0 0 119 102 737 82 3 736 7 24 0 81 1 119 1049 29 117 0 0
 83 75 738 82 3 737 7 23 0 81 1 83 1048 29 81 0 0 127 119 739 82 3 738 7 22 0 81
 1 127 1047 29 125 0 0 63 83 740 82 3 739 7 21 0 81 1 63 1046 29 61 0 0 150 127
 741 82 3 740 7 20 0 81 1 150 1045 29 148 0 0 95 63 742 82 3 741 7 19 0 81 1 95
 1044 29 93 0 0 158 150 743 82 3 742 7 18 0 81 1 158 1043 29 156 0 0 123 95 744
 82 3 743 7 17 0 81 1 123 1042 29 121 0 0 135 158 745 82 3 744 7 16 0 81 1 135 1
041 29 133 0 0 131 123 746 82 3 745 7 15 0 81 1 131 1040 29 129 0 0 142 135 747
 82 3 746 7 14 0 81 1 142 1039 29 140 0 0 154 131 748 82 3 747 7 13 0 81 1 154 1
038 29 152 0 0 138 142 749 82 3 748 7 12 0 81 1 138 1037 29 136 0 0 161 154 750
 82 3 749 7 11 0 82 3 750 7 10 0 82 3 203 7 36 1 81 1 146 1035 29 144 0 0 49 161
 751 82 3 163 7 9 0 81 1 49 1034 29 41 0 0 31 146 752 82 3 751 7 8 0 81 1 31 103
3 29 97 0 0 26 49 753 82 3 752 7 7 0 82 3 753 7 6 0 81 1 43 1029 29 110 0 0 39 6
7 754 81 1 67 1030 29 65 0 0 43 30 755 82 3 754 7 2 0 81 1 30 1031 29 104 0 0 67
 26 756 82 3 755 7 3 0 82 3 756 7 4 0 82 3 44 7 1 0 82 3 32 7 5 0 19 17 392 0 1
 0 9 5 0 S0 74 4 CI16 index_map_offset0 0 1 dCCZ20 15 7 0 0 549 646 649 13 634 5
00 2 0 0 0 0 0 0 0 0 0 0 0 0 0 80 1 12 447 757 8041 0 0 0 0 3 5 0 0 0 TTTFFFFFFF
FFFFFFF2 83 1 14 .250980392156863 79 23 757 SDL/TYSA_TRANSLUCENCY_21 0 
